<?xml version="1.0" encoding="iso-8859-1"?>
<!-- Generator: Adobe Illustrator 19.1.0, SVG Export Plug-In . SVG Version: 6.00 Build 0)  -->
<svg xmlns="http://www.w3.org/2000/svg" xmlns:xlink="http://www.w3.org/1999/xlink" version="1.1" id="Capa_1" x="0px" y="0px" viewBox="0 0 82.943 82.943" style="enable-background:new 0 0 82.943 82.943;" xml:space="preserve" width="512px" height="512px">
<path d="M52.535,36.133c-7.782,0-14.113-6.331-14.113-14.113S44.753,7.908,52.535,7.908s14.113,6.331,14.113,14.113  S60.317,36.133,52.535,36.133z M52.535,11.781c-5.646,0-10.24,4.593-10.24,10.24c0,5.646,4.593,10.24,10.24,10.24  c5.646,0,10.24-4.594,10.24-10.24C62.775,16.374,58.182,11.781,52.535,11.781z M59.237,20.084h-4.766v-4.766h-3.873v4.766h-4.766  v3.873h4.766v4.766h3.873v-4.766h4.766V20.084z M78.123,43.199l-1.65-1.61h2.624c1.069,0,1.937-0.867,1.937-1.937  c0-1.069-0.867-1.937-1.937-1.937h-7.39c-0.003,0-0.006,0.001-0.009,0.001c-0.076,0.001-0.151,0.013-0.226,0.023  c-0.957,0.118-1.701,0.924-1.701,1.913v7.39c0,1.07,0.867,1.937,1.936,1.937s1.937-0.867,1.937-1.937V44.24l1.759,1.715  c4.028,4.029,5.664,15.221,0.001,20.884c-2.789,2.789-6.496,4.324-10.44,4.324c-3.635,0-7.066-1.307-9.765-3.694  c0.122-0.127,0.244-0.255,0.366-0.384c0.809-0.858,1.667-1.715,2.497-2.544l0.425-0.425c0.751-0.751,1.165-1.752,1.165-2.818  c0-1.066-0.413-2.067-1.165-2.818l-12.94-12.94c-1.554-1.554-4.082-1.553-5.636,0l-3.673,3.674L22.123,35.099l3.673-3.673  c1.554-1.554,1.554-4.083,0-5.637l-12.94-12.94c-1.554-1.554-4.082-1.554-5.637,0l-2.397,2.397  c-0.236,0.236-0.484,0.467-0.733,0.701c-0.626,0.586-1.273,1.192-1.852,1.933c-0.94,1.203-1.42,2.6-1.699,3.547  c-0.607,2.06-0.702,4.342-0.282,6.783c0.799,4.644,3.375,9.338,7.257,13.219l22.437,22.437c4.841,4.841,10.827,7.522,16.099,7.522  c2.13,0,4.145-0.438,5.919-1.348c0.066-0.034,0.127-0.071,0.191-0.106c3.474,3.291,7.999,5.102,12.804,5.102  c4.978,0,9.658-1.938,13.178-5.458C85.662,62.057,83.325,48.401,78.123,43.199z M32.689,61.127L10.252,38.69  c-3.32-3.32-5.514-7.275-6.178-11.137c-0.319-1.852-0.258-3.545,0.181-5.032c0.305-1.035,0.624-1.731,1.035-2.256  c0.394-0.504,0.906-0.983,1.448-1.491c0.281-0.263,0.559-0.524,0.825-0.789l2.397-2.397c0.021-0.021,0.05-0.031,0.079-0.031  c0.03,0,0.059,0.01,0.08,0.031l12.94,12.94c0.041,0.041,0.041,0.118,0,0.159l-4.968,4.969c-0.016,0.015-0.032,0.029-0.047,0.043  c-0.376,0.36-0.591,0.857-0.596,1.378c-0.005,0.521,0.199,1.022,0.567,1.39L34.87,53.323c0.373,0.373,0.884,0.575,1.411,0.566  c0.528-0.011,1.028-0.238,1.385-0.627c0.004-0.004,0.007-0.009,0.012-0.013l4.971-4.971c0.041-0.041,0.118-0.041,0.159,0  l12.94,12.94v0c0.037,0.038,0.037,0.121,0,0.159L55.325,61.8c-0.85,0.849-1.73,1.727-2.579,2.628  c-0.86,0.912-1.644,1.704-2.544,2.166C45.589,68.959,38.222,66.661,32.689,61.127z" fill="#bdc4c4"/>
<g>
</g>
<g>
</g>
<g>
</g>
<g>
</g>
<g>
</g>
<g>
</g>
<g>
</g>
<g>
</g>
<g>
</g>
<g>
</g>
<g>
</g>
<g>
</g>
<g>
</g>
<g>
</g>
<g>
</g>
</svg>
