<?xml version="1.0" encoding="iso-8859-1"?>
<!-- Generator: Adobe Illustrator 19.0.0, SVG Export Plug-In . SVG Version: 6.00 Build 0)  -->
<svg xmlns="http://www.w3.org/2000/svg" xmlns:xlink="http://www.w3.org/1999/xlink" version="1.1" id="Capa_1" x="0px" y="0px" viewBox="0 0 440.477 440.477" style="enable-background:new 0 0 440.477 440.477;" xml:space="preserve" width="512px" height="512px">
<path id="XMLID_692_" d="M375.724,421.477H258.288v-35.846h48.582c9.739,0,17.899-6.891,19.858-16.052h8.828  c5.247,0,9.5-4.253,9.5-9.5s-4.253-9.5-9.5-9.5h-8.828c-1.96-9.16-10.12-16.049-19.858-16.049h-25.302v-4.778  c0-14.78-12.024-26.805-26.804-26.805h-7.302v-18.042h3.063c5.247,0,9.5-4.253,9.5-9.5s-4.253-9.5-9.5-9.5h-3.063v-15.973h3.063  c5.247,0,9.5-4.253,9.5-9.5s-4.253-9.5-9.5-9.5h-3.063V32.694h24.605c23.34,0,42.328,18.988,42.328,42.328v42.778  c-9.16,1.96-16.05,10.118-16.05,19.855v63.232c0,9.736,6.89,17.894,16.05,19.854v8.83c0,5.247,4.253,9.5,9.5,9.5s9.5-4.253,9.5-9.5  v-8.83c9.162-1.96,16.054-10.117,16.054-19.854v-63.232c0-9.737-6.892-17.896-16.054-19.855V75.022  c0-33.816-27.512-61.328-61.328-61.328h-8.588c0.623-1.265,0.974-2.688,0.974-4.194c0-5.247-4.253-9.5-9.5-9.5h-69.429  c-5.247,0-9.5,4.253-9.5,9.5c0,1.506,0.351,2.93,0.974,4.194h-8.587c-33.817,0-61.329,27.512-61.329,61.328V117.8  c-9.161,1.96-16.052,10.118-16.052,19.856v63.232c0,9.735,6.89,17.893,16.049,19.854v8.83c0,5.247,4.253,9.5,9.5,9.5  s9.5-4.253,9.5-9.5v-8.829c9.161-1.959,16.052-10.117,16.052-19.854v-63.232c0-9.737-6.889-17.896-16.049-19.855V75.022  c0-23.34,18.988-42.328,42.329-42.328h24.604v198.238h-3.062c-5.247,0-9.5,4.253-9.5,9.5s4.253,9.5,9.5,9.5h3.062v15.973h-3.062  c-5.247,0-9.5,4.253-9.5,9.5s4.253,9.5,9.5,9.5h3.062v18.042h-7.3c-14.779,0-26.804,12.024-26.804,26.805v4.778h-25.306  c-9.737,0-17.895,6.889-19.854,16.049h-8.83c-5.247,0-9.5,4.253-9.5,9.5s4.253,9.5,9.5,9.5h8.829  c1.96,9.161,10.118,16.052,19.855,16.052h48.584v35.846H64.753c-5.247,0-9.5,4.253-9.5,9.5s4.253,9.5,9.5,9.5h310.971  c5.247,0,9.5-4.253,9.5-9.5S380.971,421.477,375.724,421.477z M317.347,137.656c0-0.694,0.608-1.304,1.302-1.304h10.495  c0.696,0,1.307,0.609,1.307,1.304v63.232c0,0.693-0.61,1.302-1.307,1.302h-5.247h-5.248c-0.693,0-1.302-0.608-1.302-1.302V137.656z   M123.132,200.889c0,0.693-0.608,1.302-1.302,1.302h-5.25h-5.246c-0.694,0-1.303-0.608-1.303-1.302v-63.232  c0-0.694,0.608-1.304,1.303-1.304h10.496c0.693,0,1.302,0.609,1.302,1.304V200.889z M212.016,32.694h16.447v198.238h-16.447V32.694z   M212.016,249.933h16.447v15.973h-16.447V249.933z M212.016,284.905h16.447v18.042h-16.447V284.905z M177.912,329.752  c0-4.304,3.501-7.805,7.804-7.805h69.049c4.303,0,7.804,3.501,7.804,7.805v4.778H243.64c-9.736,0-17.893,6.889-19.853,16.049h-7.094  c-1.96-9.16-10.117-16.049-19.854-16.049h-18.927V329.752z M198.142,365.328c0,0.694-0.608,1.303-1.303,1.303h-5.148h-58.084  c-0.694,0-1.303-0.608-1.303-1.303v-10.496c0-0.693,0.608-1.302,1.303-1.302h63.232c0.694,0,1.303,0.608,1.303,1.302V365.328z   M239.288,421.477H201.19v-36.315c7.742-1.697,13.845-7.825,15.504-15.582h7.092c1.659,7.756,7.761,13.885,15.502,15.582V421.477z   M243.64,366.631c-0.693,0-1.301-0.608-1.301-1.303v-10.496c0-0.693,0.607-1.302,1.301-1.302h63.23c0.696,0,1.307,0.608,1.307,1.302  v10.496c0,0.694-0.61,1.303-1.307,1.303h-58.082H243.64z" fill="#bdc4c4"/>
<g>
</g>
<g>
</g>
<g>
</g>
<g>
</g>
<g>
</g>
<g>
</g>
<g>
</g>
<g>
</g>
<g>
</g>
<g>
</g>
<g>
</g>
<g>
</g>
<g>
</g>
<g>
</g>
<g>
</g>
</svg>
